<?xml version="1.0" encoding="UTF-8"?>
<svg version="1.1" xmlns="http://www.w3.org/2000/svg" width="1024" height="1024">
<path d="M0 0 C337.92 0 675.84 0 1024 0 C1024 337.92 1024 675.84 1024 1024 C686.08 1024 348.16 1024 0 1024 C0 686.08 0 348.16 0 0 Z " fill="#FEFEFE" transform="translate(0,0)"/>
<path d="M0 0 C0.78831221 -0.00226556 1.57662442 -0.00453111 2.38882488 -0.00686532 C5.01541154 -0.01316664 7.64194608 -0.01237844 10.26853943 -0.0115509 C12.15816311 -0.0145449 14.04778618 -0.01794799 15.93740845 -0.02172852 C21.06174074 -0.03055052 26.18605633 -0.03290594 31.31039548 -0.0335443 C34.51684762 -0.03425609 37.72329554 -0.03639292 40.92974663 -0.03904152 C52.13057092 -0.04829064 63.33138332 -0.05237715 74.5322113 -0.05158997 C84.9481992 -0.05099004 95.36413517 -0.06152617 105.78010994 -0.07733363 C114.74090777 -0.09044462 123.7016887 -0.09577234 132.66249603 -0.09513456 C138.00607024 -0.09488051 143.34959832 -0.09767943 148.69316292 -0.10831261 C153.72550472 -0.11805302 158.75775689 -0.11803233 163.79010201 -0.11079597 C165.62738172 -0.10975732 167.46466718 -0.11206979 169.3019371 -0.11815643 C192.15437317 -0.18890174 212.20460707 2.46900067 229.56712341 18.71574402 C245.5034132 35.32275308 248.04065424 54.58441562 248.03269958 76.58634949 C248.03569577 78.24468562 248.03909936 79.90302106 248.0428772 81.56135559 C248.05167352 86.04489306 248.05405343 90.52841142 248.05469298 95.01195669 C248.05540584 97.81804825 248.0575446 100.62413501 248.0601902 103.43022537 C248.0694284 113.23357194 248.0735269 123.03690496 248.07273865 132.84025574 C248.07213792 141.95667891 248.08269277 151.0730429 248.09848231 160.1894511 C248.11158488 168.03602687 248.11692142 175.88258335 248.11628324 183.72916996 C248.1160291 188.40695539 248.11883394 193.08468815 248.12946129 197.76246262 C248.1391884 202.16364911 248.13919002 206.56473306 248.13194466 210.96592331 C248.13090461 212.57386933 248.13322696 214.1818219 248.13930511 215.78975677 C248.21182924 236.31750736 244.26220076 254.69910619 229.57493591 270.00871277 C212.97221192 285.75189519 194.16316982 288.4401178 172.32371521 288.40837097 C170.34335641 288.41272332 168.36299929 288.4179082 166.38264465 288.42385864 C161.02507769 288.43720439 155.66758147 288.43783219 150.31000113 288.43529534 C145.82718684 288.43422252 141.34438668 288.43911701 136.86157542 288.44390076 C126.27977134 288.45498089 115.69800275 288.45544192 105.11619568 288.4493866 C94.2235133 288.44334891 83.33096017 288.4556561 72.43829983 288.47695667 C63.06471585 288.49460827 53.69117287 288.50056837 44.31757289 288.49731892 C38.72869494 288.49551143 33.13990917 288.4980887 27.55104637 288.51203346 C22.29209479 288.52466501 17.03334371 288.52261751 11.77439499 288.50962257 C9.85284035 288.50726873 7.93127137 288.50994834 6.0097332 288.5182457 C-7.4733281 288.57223353 -20.00679888 287.93579137 -32.23756409 281.57121277 C-33.24194519 281.05566833 -33.24194519 281.05566833 -34.26661682 280.52970886 C-49.08364995 272.56455481 -59.13658112 259.05565742 -64.05006409 243.08683777 C-67.02426183 231.819204 -67.265848 220.79546253 -67.2736969 209.21940613 C-67.27833301 207.61844266 -67.28335872 206.01748029 -67.28874207 204.41651917 C-67.30179306 200.08760386 -67.30829685 195.75870402 -67.31275272 191.42977214 C-67.31569572 188.71744696 -67.3198028 186.0051259 -67.3242569 183.29280281 C-67.33791354 174.7839971 -67.34758875 166.27520092 -67.35145879 157.76638502 C-67.35593304 147.98633675 -67.37345927 138.20642869 -67.40245938 128.42642301 C-67.42416766 120.83879027 -67.43416795 113.2511967 -67.43549991 105.66353327 C-67.43654155 101.14484499 -67.44231113 96.62628882 -67.46031952 92.10763359 C-67.47695899 87.85003087 -67.47887991 83.59265733 -67.47018051 79.33503342 C-67.4694185 77.78562233 -67.47364017 76.23619809 -67.48363876 74.68681908 C-67.61656559 52.77691157 -63.06898987 34.05567975 -47.92506409 17.44621277 C-34.9030744 5.21610084 -17.58098739 -0.03755799 0 0 Z " fill="#010101" transform="translate(533.1125640869141,214.8662872314453)"/>
<path d="M0 0 C3.46089243 -0.04606699 6.9217041 -0.07337215 10.3828125 -0.09765625 C11.34936768 -0.11074829 12.31592285 -0.12384033 13.31176758 -0.1373291 C37.97284578 -0.26658004 60.51484506 9.77030999 78 27 C97.54392689 46.51135368 107.15291711 73.88531617 107.25816262 101.2682603 C107.24942409 102.9040224 107.24942409 102.9040224 107.24050903 104.5728302 C107.24221788 105.76816791 107.24392673 106.96350561 107.24568737 108.19506568 C107.2483879 111.47221112 107.24223017 114.74919383 107.23213124 118.0263201 C107.22342282 121.57554495 107.22642208 125.12476343 107.22793579 128.67399597 C107.22898001 134.80978463 107.22275213 140.94553047 107.21146011 147.08130836 C107.19514485 155.95239884 107.18999097 164.8234688 107.18748413 173.69457265 C107.18311644 188.09042017 107.16983258 202.48624491 107.15087891 216.88208008 C107.13249606 230.85896695 107.11835135 244.83584761 107.10986328 258.81274414 C107.10933783 259.67555745 107.10881239 260.53837077 107.10827102 261.42732994 C107.10566078 265.75619231 107.1031334 270.08505473 107.10064721 274.41391718 C107.07994358 310.27596087 107.0447434 346.13797865 107 382 C132.53973339 381.93934723 158.07936748 381.86176409 183.61898804 381.76428509 C195.47873035 381.71940949 207.33844319 381.67997596 219.19824219 381.65356445 C229.54090395 381.63051754 239.88347179 381.59704518 250.22605896 381.55129844 C255.69722871 381.52745625 261.16830594 381.50866864 266.63952637 381.50238609 C271.80072278 381.49629429 276.96168278 381.47614824 282.12279129 381.44572449 C284.00597104 381.43700942 285.88918176 381.43320794 287.77238083 381.43499184 C312.09382508 381.45074117 337.37510353 377.08042353 355.4609375 359.46875 C357 358 357 358 358 358 C358.86449266 393.62153097 353.92957926 427.42547911 329.44140625 454.8671875 C310.03827587 475.19964052 284.00556869 485.5133457 256.17020202 486.34550357 C252.24823241 486.40728995 248.32807459 486.40372137 244.40576172 486.38818359 C242.63745808 486.39226368 240.869157 486.3976135 239.1008606 486.40411377 C234.36126064 486.41762065 229.62185977 486.41255917 224.88225698 486.40297651 C219.88545858 486.39529489 214.88867541 486.40244859 209.89187622 486.40713501 C201.50845326 486.4125671 193.12511003 486.40546725 184.74169922 486.39111328 C175.09232765 486.37478105 165.44314625 486.38008981 155.79377925 486.3965925 C147.45942508 486.41026766 139.12512767 486.41209804 130.79076588 486.40427649 C125.83458859 486.39963431 120.87850029 486.39887892 115.92232895 486.40888596 C111.26156974 486.41764222 106.60105252 486.41137817 101.94031906 486.39420319 C100.24458719 486.39028452 98.54883443 486.39129147 96.85311127 486.39799118 C82.80479645 486.44831834 68.66544372 485.31195215 55.375 480.375 C54.68390137 480.12266602 53.99280273 479.87033203 53.28076172 479.61035156 C32.14068836 471.49773386 16.24419209 456.17516722 6.94431591 435.54053116 C-1.72026355 415.72313997 -0.69573556 395.12541271 -0.58032811 373.93151879 C-0.55853208 368.90251391 -0.56605692 363.87353658 -0.56983948 358.84449768 C-0.57244849 350.15287775 -0.55689525 341.46144694 -0.52865028 332.76987457 C-0.4878408 320.20368811 -0.47497529 307.63759215 -0.46871033 295.07134661 C-0.45779439 274.67853484 -0.42459381 254.28582364 -0.37719727 233.89306641 C-0.33123154 214.09521993 -0.29587402 194.29740086 -0.2746582 174.49951172 C-0.27334459 173.27711101 -0.27203097 172.05471029 -0.27067754 170.79526713 C-0.26415188 164.66222671 -0.25783346 158.52918609 -0.25161803 152.39614534 C-0.19986921 101.59736077 -0.11187788 50.79868531 0 0 Z " fill="#000000" transform="translate(339,277)"/>
<path d="M0 0 C12.87 0 25.74 0 39 0 C41.71123819 6.77809547 44.2662672 13.49469574 46.58203125 20.40234375 C46.91269089 21.38042496 47.24335052 22.35850616 47.58403015 23.3662262 C48.29310961 25.46383578 49.00107244 27.5618231 49.70800781 29.66015625 C51.60709352 35.29528591 53.51586566 40.92712687 55.42578125 46.55859375 C55.81279205 47.69980682 56.19980286 48.8410199 56.59854126 50.01681519 C60.1705138 60.53305441 63.82428287 71.01966596 67.5 81.5 C72.82382191 96.69423908 78.07928092 111.91098361 83.27392578 127.14990234 C84.04615622 129.41474436 84.81942165 131.67923376 85.59375 133.94335938 C86.66853304 137.08747294 87.7392135 140.23295162 88.80859375 143.37890625 C89.13278793 144.32564713 89.45698212 145.272388 89.79100037 146.24781799 C90.22981285 147.54355995 90.22981285 147.54355995 90.67749023 148.86547852 C90.93425034 149.61958511 91.19101044 150.37369171 91.45555115 151.15065002 C92 153 92 153 92 155 C80.78 155 69.56 155 58 155 C56.515 150.606875 55.03 146.21375 53.5 141.6875 C53.03013672 140.30522217 52.56027344 138.92294434 52.07617188 137.4987793 C51.71072266 136.40992432 51.34527344 135.32106934 50.96875 134.19921875 C50.59169922 133.08377686 50.21464844 131.96833496 49.82617188 130.8190918 C49 128 49 128 49 125 C29.2 125 9.4 125 -11 125 C-11.66 127.97 -12.32 130.94 -13 134 C-13.5409671 135.83476235 -14.11142329 137.66141302 -14.7265625 139.47265625 C-15.00580566 140.30289307 -15.28504883 141.13312988 -15.57275391 141.98852539 C-15.91999512 143.00293701 -16.26723633 144.01734863 -16.625 145.0625 C-17.73875 148.341875 -18.8525 151.62125 -20 155 C-30.89 155 -41.78 155 -53 155 C-51.65867253 148.96402641 -50.24696143 143.34822593 -48.234375 137.55859375 C-47.96473938 136.77061401 -47.69510376 135.98263428 -47.41729736 135.17077637 C-46.53307016 132.59131422 -45.64171583 130.01438197 -44.75 127.4375 C-44.12080451 125.60825376 -43.49190355 123.77890619 -42.86328125 121.94946289 C-37.18855798 105.4580387 -31.42956695 88.99587449 -25.6474762 72.5418396 C-23.53275878 66.52250398 -21.42659323 60.50021932 -19.32421875 54.4765625 C-12.97289812 36.28390216 -6.56710593 18.11615429 0 0 Z " fill="#FDFDFD" transform="translate(580,279)"/>
<path d="M0 0 C10.56 0 21.12 0 32 0 C32 51.15 32 102.3 32 155 C21.44 155 10.88 155 0 155 C0 103.85 0 52.7 0 0 Z " fill="#FEFEFE" transform="translate(688,279)"/>
<path d="M0 0 C0.66 0 1.32 0 2 0 C2.26855804 0.86205048 2.26855804 0.86205048 2.5425415 1.74151611 C4.42326361 7.77766476 6.30565188 13.81329205 8.18896484 19.84863281 C8.88957896 22.09459596 9.58978244 24.34068725 10.28955078 26.58691406 C11.30130153 29.83433087 12.31457782 33.08126848 13.328125 36.328125 C13.63558655 37.31613098 13.9430481 38.30413696 14.25982666 39.32208252 C16.16333399 45.41368937 18.16031763 51.46325097 20.25408936 57.49237061 C21 60 21 60 21 63 C7.47 63 -6.06 63 -20 63 C-5.63781321 17.69248292 -5.63781321 17.69248292 0 0 Z " fill="#020202" transform="translate(598,314)"/>
</svg>
