<svg width="512" height="512" viewBox="0 0 80 80" xmlns="http://www.w3.org/2000/svg">
  <defs>
    <!-- Professional gradient -->
    <linearGradient id="professionalGradient" x1="0%" y1="0%" x2="100%" y2="100%">
      <stop offset="0%" style="stop-color:#3b82f6;stop-opacity:1" />
      <stop offset="50%" style="stop-color:#6366f1;stop-opacity:1" />
      <stop offset="100%" style="stop-color:#8b5cf6;stop-opacity:1" />
    </linearGradient>
    
    <!-- Sword accent gradient -->
    <linearGradient id="swordGradient" x1="0%" y1="0%" x2="100%" y2="100%">
      <stop offset="0%" style="stop-color:#f59e0b;stop-opacity:1" />
      <stop offset="100%" style="stop-color:#ef4444;stop-opacity:1" />
    </linearGradient>
    
    <!-- Professional shadow -->
    <filter id="professionalShadow" x="-50%" y="-50%" width="200%" height="200%">
      <feDropShadow dx="0" dy="3" stdDeviation="6" flood-color="#1e293b" flood-opacity="0.15"/>
    </filter>
    
    <!-- Subtle glow -->
    <filter id="subtleGlow" x="-50%" y="-50%" width="200%" height="200%">
      <feGaussianBlur stdDeviation="1" result="coloredBlur"/>
      <feMerge> 
        <feMergeNode in="coloredBlur"/>
        <feMergeNode in="SourceGraphic"/>
      </feMerge>
    </filter>
  </defs>
  
  <!-- Professional background circle -->
  <circle 
    cx="40" 
    cy="40" 
    r="36" 
    fill="url(#professionalGradient)"
    filter="url(#professionalShadow)"
  />
  
  <!-- Subtle inner ring -->
  <circle 
    cx="40" 
    cy="40" 
    r="31" 
    fill="none" 
    stroke="rgba(255,255,255,0.15)" 
    stroke-width="0.5"
  />
  
  <!-- Main stylish "L" letter -->
  <g transform="translate(40, 40)">
    <!-- Vertical stroke of L -->
    <path 
      d="M -12 -18 L -8 -18 L -8 8 L -12 8 Z" 
      fill="white"
      filter="url(#subtleGlow)"
    />
    
    <!-- Horizontal stroke of L -->
    <path 
      d="M -12 8 L 8 8 L 10 12 L -12 12 Z" 
      fill="white"
      filter="url(#subtleGlow)"
    />
    
    <!-- Infinity symbol integrated into L -->
    <path 
      d="M 2 -12 Q 6 -16 10 -12 Q 14 -8 10 -4 Q 6 -8 2 -4 Q -2 -8 2 -12 Z" 
      fill="none"
      stroke="url(#swordGradient)"
      stroke-width="2"
      stroke-linecap="round"
    />
    
    <!-- Sword blade -->
    <path 
      d="M 8 10 L 16 10 L 18 8 L 16 6 L 8 6" 
      fill="url(#swordGradient)"
    />
    
    <!-- Sword hilt/guard -->
    <rect 
      x="15" 
      y="4" 
      width="2" 
      height="8" 
      fill="url(#swordGradient)"
      rx="1"
    />
    
    <!-- Sword pommel -->
    <circle 
      cx="18" 
      cy="8" 
      r="1.5" 
      fill="url(#swordGradient)"
    />
    
    <!-- Professional accent dots -->
    <circle 
      cx="-6" 
      cy="-14" 
      r="1" 
      fill="rgba(255,255,255,0.8)"
    />
    <circle 
      cx="-6" 
      cy="-10" 
      r="0.8" 
      fill="rgba(255,255,255,0.6)"
    />
    <circle 
      cx="-6" 
      cy="-6" 
      r="0.6" 
      fill="rgba(255,255,255,0.4)"
    />
  </g>
  
  <!-- Corner professional elements -->
  <rect x="8" y="8" width="3" height="0.8" fill="rgba(255,255,255,0.3)" rx="0.4"/>
  <rect x="69" y="8" width="3" height="0.8" fill="rgba(255,255,255,0.3)" rx="0.4"/>
  <rect x="8" y="71" width="3" height="0.8" fill="rgba(255,255,255,0.3)" rx="0.4"/>
  <rect x="69" y="71" width="3" height="0.8" fill="rgba(255,255,255,0.3)" rx="0.4"/>
</svg>
